<?xml version="1.0" encoding="utf-8"?>
<!-- Generator: Adobe Illustrator 26.3.1, SVG Export Plug-In . SVG Version: 6.00 Build 0)  -->
<svg version="1.1" id="Layer_1" xmlns="http://www.w3.org/2000/svg" xmlns:xlink="http://www.w3.org/1999/xlink" x="0px" y="0px"
	 viewBox="0 0 1500 441.5" style="enable-background:new 0 0 1500 441.5;" xml:space="preserve">
<style type="text/css">
	.st0{display:none;}
	.st1{display:inline;}
	.st2{fill:#FFFFFF;}
	.st3{fill:#A642BA;}
	.st4{opacity:0.6;}
	.st5{fill:url(#SVGID_1_);}
	.st6{fill:url(#SVGID_00000001645521335063162990000011060061826395173763_);}
	.st7{fill:url(#SVGID_00000026142779477444999010000011044773169518423725_);}
	.st8{fill:url(#SVGID_00000090286170974107591930000008012792181990797712_);}
	.st9{fill:url(#SVGID_00000029030898463626164250000001613738925981560484_);}
	.st10{fill:url(#SVGID_00000014596474317910053790000010727120447586019219_);}
	.st11{fill:url(#SVGID_00000121997387651154717600000012413453893460249277_);}
	.st12{fill:url(#SVGID_00000094575815103021610700000006851566039430160036_);}
	.st13{fill:url(#SVGID_00000030486014958465224340000010869274631212685468_);}
	.st14{fill:url(#SVGID_00000103978760895525438800000010222470875637784218_);}
	.st15{fill:url(#SVGID_00000006709592481134999790000000251062793596315323_);}
	.st16{fill:url(#SVGID_00000116233226838431908940000012402565560761962158_);}
	.st17{fill:url(#SVGID_00000111168690769546111190000013678701242267133592_);}
	.st18{fill:url(#SVGID_00000039816652349450568860000009312677782206302625_);}
	.st19{fill:url(#SVGID_00000005975257353217225690000013879744330723034031_);}
	.st20{fill:url(#SVGID_00000168075049759502487210000007540162568705314742_);}
	.st21{fill:url(#SVGID_00000130640214174199966300000009487212572379568562_);}
	.st22{fill:url(#SVGID_00000119093148991869233660000004631759289793092767_);}
	.st23{fill:url(#SVGID_00000049935155897213414570000001119543137830741145_);}
	.st24{fill:url(#SVGID_00000074443028298256514350000005849519422341909927_);}
	.st25{fill:url(#SVGID_00000119807636299506395170000003783374646853429895_);}
	.st26{fill:url(#SVGID_00000183217692361915350960000005122391066798500782_);}
	.st27{fill:url(#SVGID_00000079472621480093314510000006625213911954695323_);}
	.st28{display:none;fill-rule:evenodd;clip-rule:evenodd;fill:#FD7860;}
	.st29{display:none;fill:#FFFFFF;enable-background:new    ;}
	.st30{font-family:'Ubuntu';}
	.st31{font-size:68.2976px;}
	.st32{letter-spacing:2;}
	.st33{fill:#F1546D;}
	.st34{font-size:99.855px;}
	.st35{letter-spacing:4;}
</style>
<g id="Layer_1_00000169530296294615621120000002766954933647308929_" class="st0">
	<g class="st1">
		<g>
			<path class="st2" d="M376.9,256.8V136.3c0-6.1,5.2-11,11.6-11h64.1c18.8,0,33.9,14.4,33.9,32.2v77.9c0,17.6-15.2,32.2-33.9,32.2
				h-64.1C382.1,267.8,376.9,262.8,376.9,256.8z M467.8,237v-81c0-8-6.8-14.4-15.2-14.4h-53.1c-2.2,0-3.8,1.5-3.8,3.6v102.6
				c0,1.9,1.6,3.6,3.8,3.6h53.1C461,251.4,467.8,245,467.8,237z"/>
			<path class="st2" d="M539.1,156.1v36c2-2.3,5.6-3.8,9.8-3.8h65.7v13.8c0,1.3-1.2,2.5-2.6,2.5h-72.9V237c0,8,6.8,14.4,15.2,14.4
				H619c1.4,0,2.6,1.1,2.6,2.5v13.8h-67.3c-18.8,0-33.9-14.4-33.9-32.2v-77.9c0-17.8,15.2-32.2,33.9-32.2h67.3v13.8
				c0,1.3-1.2,2.5-2.6,2.5h-64.7C545.8,141.6,539.1,148.1,539.1,156.1z"/>
			<path class="st2" d="M751.3,125.3v13.8c0,1.3-1.2,2.5-2.6,2.5H684c-8.4,0-15.2,6.5-15.2,14.4v36.4c2-2.5,5.8-4.2,10-4.2h67.9V202
				c0,1.3-1.2,2.5-2.6,2.5h-75.3v60.7c0,1.3-1.2,2.5-2.6,2.5H650V157.6c0-17.8,15.2-32.2,33.9-32.2h67.4L751.3,125.3L751.3,125.3z"
				/>
			<path class="st2" d="M782.3,265.3v-140h16.2c1.4,0,2.6,1.1,2.6,2.5v140h-16.2C783.5,267.8,782.3,266.6,782.3,265.3z"/>
			<path class="st2" d="M936.5,201.8v-74c0-1.3,1.2-2.5,2.6-2.5h16.2v142.4h-17.4c-1.4,0-3.2-1.1-3.8-2.3l-68.3-120.8
				c-1-1.7-3.4-3-5.4-3H857v123.7c0,1.3-1.2,2.5-2.6,2.5h-16.2v-140c0-1.3,1.2-2.5,2.6-2.5h22.8c6.4,0,14,4.4,17,9.7l40.7,73
				l18.2,34C937.5,227.2,937.5,215.2,936.5,201.8z"/>
			<path class="st2" d="M993.6,265.3v-140h16.2c1.4,0,2.6,1.1,2.6,2.5v140h-16.2C994.8,267.8,993.6,266.6,993.6,265.3z"/>
			<path class="st2" d="M1149.9,125.3v13.8c0,1.3-1.2,2.5-2.6,2.5h-42.7v123.7c0,1.3-1,2.5-2.6,2.5h-16.2V141.6h-44.7v-13.8
				c0-1.3,1.2-2.5,2.6-2.5H1149.9z"/>
			<path class="st2" d="M1295.1,125.3l-30.6,73.8c-2.2,5.7-7,10.8-14.8,10.8h-9v55.4c0,1.3-1.2,2.5-2.6,2.5h-16.4V210l-8-0.2
				c-8.6,0-13.6-4.9-15.8-10.6l-30.6-73.8h17.6c1.4,0,3,1.1,3.6,2.3l25,62c0.8,1.9,3.2,3.4,5.2,3.4h25c2,0,4.4-1.5,5.2-3.4l25-62
				c0.6-1.1,2.2-2.3,3.6-2.3L1295.1,125.3L1295.1,125.3L1295.1,125.3z"/>
			<path class="st3" d="M1422.7,125.3v13.8c0,1.3-1.2,2.5-2.6,2.5h-64.7c-8.4,0-15.2,6.5-15.2,14.4v36.4c2-2.5,5.8-4.2,10-4.2h67.9
				V202c0,1.3-1.2,2.5-2.6,2.5h-75.3v60.7c0,1.3-1.2,2.5-2.6,2.5h-16.2V157.6c0-17.8,15.2-32.2,33.9-32.2h67.4L1422.7,125.3
				L1422.7,125.3z"/>
			<path class="st3" d="M1453.7,265.3v-140h16.2c1.4,0,2.6,1.1,2.6,2.5v140h-16.2C1454.9,267.8,1453.7,266.6,1453.7,265.3z"/>
		</g>
		<g class="st4">
			<path class="st2" d="M437.9,381.1c-1.7-4-3.3-7.9-4.8-11.6s-2.9-7.4-4.2-10.9h-44.6c-1.5,3.6-3,7.2-4.5,10.9
				c-1.5,3.7-3,7.6-4.6,11.6h-9.3c3.5-8.6,6.7-16.5,9.8-23.9c3.1-7.4,6.1-14.4,9.1-21s5.9-12.9,8.8-19s6-12.2,9.2-18.3h7.9
				c3.2,6.1,6.3,12.2,9.2,18.3c2.9,6.1,5.8,12.4,8.8,19s6,13.6,9,21c3.1,7.4,6.4,15.4,10.1,23.9H437.9z M406.5,308.2
				c-3.3,6.8-6.5,13.7-9.7,20.8c-3.1,7-6.4,14.6-9.7,22.7h39c-3.4-8.1-6.7-15.7-9.8-22.8C413,321.9,409.8,315,406.5,308.2z"/>
			<path class="st2" d="M488.5,382.4c-5.3,0-9.9-0.8-14-2.2c-4-1.5-7.4-3.7-10.1-6.5s-4.7-6.2-6.1-10.1s-2.1-8.2-2.1-13
				s0.7-9.2,2.2-13.2c1.4-4,3.5-7.4,6.3-10.2c2.7-2.8,6-5,9.9-6.6c3.9-1.5,8.2-2.3,13-2.3c3.7,0,7.1,0.3,10.3,0.8
				c3.2,0.6,5.7,1.3,7.4,2.1l-2.2,6.6c-1.8-0.8-3.7-1.4-5.9-1.9c-2.2-0.5-5.1-0.7-8.8-0.7c-7.6,0-13.3,2.2-17.2,6.6
				c-3.9,4.4-5.9,10.6-5.9,18.7c0,3.6,0.4,7,1.3,10s2.3,5.6,4.3,7.8c2,2.2,4.5,3.9,7.6,5.1s6.9,1.8,11.4,1.8c3.7,0,6.8-0.4,9.3-1.1
				c2.5-0.8,4.3-1.4,5.5-2l1.8,6.6c-1.6,0.8-4.1,1.6-7.4,2.3C495.7,382,492.2,382.4,488.5,382.4z"/>
			<path class="st2" d="M541.6,318.4c4.5,0,8.3,0.6,11.4,1.7c3.1,1.1,5.6,2.7,7.6,4.7c1.9,2,3.3,4.4,4.2,7.2c0.9,2.8,1.3,5.8,1.3,9
				v38.6c-0.9,0.2-2.2,0.5-3.8,0.8c-1.7,0.3-3.6,0.6-5.8,0.9s-4.6,0.6-7.3,0.8c-2.7,0.2-5.4,0.3-8.2,0.3c-3.6,0-6.9-0.4-9.9-1.1
				s-5.7-1.8-7.9-3.4c-2.2-1.5-4-3.5-5.3-5.9s-1.9-5.4-1.9-8.8c0-3.3,0.7-6.2,2.1-8.5c1.4-2.4,3.4-4.3,5.9-5.9
				c2.5-1.5,5.6-2.7,9.1-3.4s7.3-1.1,11.5-1.1c1.2,0,2.5,0.1,3.9,0.2s2.7,0.3,3.9,0.5c1.3,0.2,2.4,0.4,3.3,0.6
				c0.9,0.2,1.6,0.4,1.9,0.5v-3.8c0-2.1-0.2-4.2-0.5-6.2c-0.4-2-1.1-3.8-2.3-5.5c-1.2-1.6-2.9-2.9-5-3.9c-2.2-1-5-1.5-8.5-1.5
				c-5,0-8.7,0.3-11.2,0.9s-4.3,1.1-5.4,1.5l-1.2-6.8c1.5-0.6,3.8-1.2,6.9-1.8C533.4,318.7,537.2,318.4,541.6,318.4z M542.3,375.5
				c3.3,0,6.3-0.1,8.8-0.3c2.5-0.2,4.6-0.5,6.4-0.8v-21.6c-1-0.4-2.5-0.8-4.6-1.2c-2.1-0.4-5-0.6-8.7-0.6c-2.1,0-4.3,0.1-6.6,0.4
				s-4.4,0.9-6.3,1.8c-1.9,0.9-3.5,2.2-4.7,3.7c-1.2,1.6-1.8,3.7-1.8,6.3c0,2.3,0.4,4.2,1.3,5.8c0.8,1.6,2,2.8,3.6,3.8
				c1.5,1,3.4,1.6,5.5,2.1C537.2,375.3,539.6,375.5,542.3,375.5z"/>
			<path class="st2" d="M642,379.2c-2.5,0.8-5.8,1.5-9.7,2.3s-9,1.1-15,1.1c-5,0-9.5-0.7-13.6-2.2s-7.6-3.6-10.5-6.3
				s-5.2-6.1-6.8-10.1c-1.6-3.9-2.4-8.4-2.4-13.4c0-4.7,0.7-8.9,2-12.9c1.4-3.9,3.4-7.3,6-10.1c2.6-2.8,5.9-5.1,9.7-6.6
				c3.8-1.6,8.2-2.4,13.1-2.4c4.5,0,8.4,0.6,11.7,1.7s5.7,2.2,7.2,3.3v-33l8.6-1.4v90H642z M633.5,331c-0.8-0.6-1.8-1.1-3-1.8
				c-1.2-0.6-2.6-1.2-4.1-1.8c-1.6-0.6-3.3-1-5.1-1.4s-3.8-0.5-5.8-0.5c-4.2,0-7.7,0.7-10.6,2c-2.9,1.3-5.2,3.1-6.9,5.4
				c-1.8,2.3-3,4.9-3.8,7.9s-1.2,6.3-1.2,9.7c0,8.1,2.2,14.2,6.7,18.6c4.5,4.3,10.4,6.5,17.8,6.5c4.2,0,7.6-0.2,10.2-0.5
				c2.6-0.4,4.5-0.7,5.9-1.1v-43L633.5,331L633.5,331z"/>
			<path class="st2" d="M660.6,350.4c0-5.4,0.9-10.1,2.6-14c1.7-4,4-7.3,6.7-10c2.8-2.7,5.9-4.7,9.5-6s7.2-2,11-2
				c8.3,0,15,2.5,19.9,7.4c5,4.9,7.4,12.4,7.4,22.6c0,0.6,0,1.3-0.1,1.9c0,0.6-0.1,1.2-0.2,1.8h-47.8c0.3,7.5,2.3,13.3,6.2,17.3
				s10,6,18.4,6c4.7,0,8.3-0.4,11.1-1.2c2.7-0.8,4.7-1.5,5.9-2l1.6,6.6c-1.2,0.6-3.5,1.4-6.9,2.3s-7.4,1.3-11.9,1.3
				c-6,0-11.1-0.8-15.3-2.4s-7.7-3.8-10.4-6.6c-2.7-2.8-4.7-6.2-5.9-10.1C661.2,359.4,660.6,355.1,660.6,350.4z M709,345.5
				c-0.2-6.4-1.8-11.4-5-14.9c-3.2-3.6-7.6-5.3-13.4-5.3c-3.1,0-5.8,0.6-8.2,1.7s-4.5,2.6-6.3,4.4c-1.8,1.9-3.2,4-4.2,6.5
				s-1.6,5-1.8,7.7H709V345.5z"/>
			<path class="st2" d="M736.9,322c2.5-0.6,5.9-1.3,9.9-2.1c4.1-0.8,9.4-1.2,15.9-1.2c8.6,0,14.8,2.2,18.7,6.8
				c0.4-0.3,1.3-0.8,2.6-1.6c1.3-0.8,2.9-1.5,4.8-2.3s4.2-1.5,6.8-2c2.6-0.6,5.5-0.8,8.6-0.8c5.2,0,9.4,0.7,12.6,2.1
				c3.2,1.4,5.7,3.3,7.4,5.8c1.8,2.5,2.9,5.5,3.6,8.9c0.6,3.5,0.9,7.3,0.9,11.4v34.3h-8.6v-31.8c0-4-0.2-7.5-0.6-10.5
				c-0.4-3-1.2-5.4-2.4-7.3s-2.9-3.4-5.1-4.4c-2.2-1-5.1-1.5-8.6-1.5c-2.6,0-5,0.2-7.2,0.7c-2.2,0.4-4,1-5.6,1.6s-2.9,1.3-3.9,1.9
				s-1.7,1.1-2.2,1.4c0.8,2.1,1.4,4.4,1.8,6.9c0.4,2.6,0.6,5.3,0.6,8.1v34.9h-8.6v-31.8c0-4-0.2-7.5-0.6-10.5
				c-0.4-3-1.2-5.4-2.4-7.3s-3-3.4-5.2-4.4s-5.2-1.5-8.9-1.5c-4.1,0-7.6,0.2-10.5,0.6s-4.7,0.8-5.5,1.1v53.8h-8.6V322H736.9z"/>
			<path class="st2" d="M869.1,382.4c-2.9-4.8-5.6-9.9-8.3-15.1s-5.2-10.5-7.5-15.8s-4.5-10.7-6.4-16s-3.6-10.6-5-15.7h9.1
				c1,3.8,2.2,7.9,3.7,12.3s3.2,8.9,5.1,13.6c1.9,4.7,4,9.4,6.2,14.4c2.3,4.9,4.8,9.7,7.5,14.5c2-4.9,3.7-9.5,5.2-13.8
				s2.9-8.7,4.2-13s2.5-8.7,3.7-13.2s2.4-9.4,3.7-14.6h8.6c-2.9,11.5-6.1,22.6-9.6,33.5c-3.6,10.8-7.5,20.7-11.7,29.7
				c-1.7,3.6-3.4,6.6-5.2,9.2s-3.7,4.7-5.9,6.3c-2.2,1.7-4.7,2.9-7.5,3.7c-2.9,0.8-6.2,1.2-10.1,1.2c-2.2,0-4.2-0.2-6-0.7
				s-2.9-0.8-3.4-1.1l1.7-6.4c0.4,0.2,1.3,0.6,3,1c1.6,0.4,3.3,0.7,5.1,0.7c2.5,0,4.7-0.2,6.7-0.7s3.8-1.3,5.3-2.4
				c1.6-1.1,3-2.6,4.3-4.4C866.7,387.5,867.9,385.2,869.1,382.4z"/>
		</g>
		<g>
			
				<linearGradient id="SVGID_1_" gradientUnits="userSpaceOnUse" x1="-42.0529" y1="698.6287" x2="228.2298" y2="333.4375" gradientTransform="matrix(1 0 0 -1 0 784)">
				<stop  offset="0" style="stop-color:#FB9C0C"/>
				<stop  offset="0.4557" style="stop-color:#C700CD"/>
				<stop  offset="1" style="stop-color:#24D6F0"/>
			</linearGradient>
			<path class="st5" d="M37.6,387.2v-29.8h15.9l53.8-53.8v-69.1l50-50l17.6-0.2l-55.3,55.3v69.1l-52.2,52.2v26.3L37.6,387.2
				L37.6,387.2z M45,379.8h15v-15H45V379.8z"/>
			
				<linearGradient id="SVGID_00000020400623351067693710000018347092141558133661_" gradientUnits="userSpaceOnUse" x1="94.8252" y1="799.934" x2="365.1079" y2="434.7427" gradientTransform="matrix(1 0 0 -1 0 784)">
				<stop  offset="0" style="stop-color:#FB9C0C"/>
				<stop  offset="0.4557" style="stop-color:#C700CD"/>
				<stop  offset="1" style="stop-color:#24D6F0"/>
			</linearGradient>
			<polygon style="fill:url(#SVGID_00000020400623351067693710000018347092141558133661_);" points="319.7,259.9 284.1,221 
				285.8,187.6 265.8,179.2 234.4,146 212.9,141.4 170.7,99.2 166.7,81.5 149.7,67.2 159,106.6 204.5,152.1 228.6,157.7 260.7,192 
				274.4,198 272.3,227.7 317,274.6 316.3,284.9 303.6,289.8 293.2,306.6 327.9,292.9 332,256.1 			"/>
			
				<linearGradient id="SVGID_00000155129247612408683740000016044443220145811618_" gradientUnits="userSpaceOnUse" x1="-6.9854" y1="724.5826" x2="263.2973" y2="359.3914" gradientTransform="matrix(1 0 0 -1 0 784)">
				<stop  offset="0" style="stop-color:#FB9C0C"/>
				<stop  offset="0.4557" style="stop-color:#C700CD"/>
				<stop  offset="1" style="stop-color:#24D6F0"/>
			</linearGradient>
			<path style="fill:url(#SVGID_00000155129247612408683740000016044443220145811618_);" d="M172.4,403.8v-26.3l-34.8-34.8V247
				l29.5-31h17.3L150,252.3v85.3l36.4,36.4h15.8v29.8H172.4z M179.8,396.4h15v-15h-15V396.4z"/>
			
				<linearGradient id="SVGID_00000062191649313311439350000005586471260038934932_" gradientUnits="userSpaceOnUse" x1="-5.1512" y1="725.9401" x2="265.1316" y2="360.7489" gradientTransform="matrix(1 0 0 -1 0 784)">
				<stop  offset="0" style="stop-color:#FB9C0C"/>
				<stop  offset="0.4557" style="stop-color:#C700CD"/>
				<stop  offset="1" style="stop-color:#24D6F0"/>
			</linearGradient>
			<path style="fill:url(#SVGID_00000062191649313311439350000005586471260038934932_);" d="M219,403.8V377l-48.3-48.3v-64.3
				l12.3,4.9v54.3l50.5,50.5h15.4v29.8H219V403.8z M226.4,383.1v13.3h15v-15h-13.3L226.4,383.1z"/>
			
				<linearGradient id="SVGID_00000116213679144403164310000001390747202488626852_" gradientUnits="userSpaceOnUse" x1="-14.6363" y1="718.92" x2="255.6465" y2="353.7289" gradientTransform="matrix(1 0 0 -1 0 784)">
				<stop  offset="0" style="stop-color:#FB9C0C"/>
				<stop  offset="0.4557" style="stop-color:#C700CD"/>
				<stop  offset="1" style="stop-color:#24D6F0"/>
			</linearGradient>
			<path style="fill:url(#SVGID_00000116213679144403164310000001390747202488626852_);" d="M25,340v-29.8h23.5l24.9-24.9V221
				l67.9-67.9H164l-31.6-31.6L106.2,15.2l16,13.4l21.3,86.7l50.2,50.2h-47.3l-60.7,60.7v64.3l-31,31V340H25z M32.3,332.6h15v-15h-15
				V332.6z"/>
			
				<linearGradient id="SVGID_00000182520942884975059810000003495235860092714144_" gradientUnits="userSpaceOnUse" x1="-77.2969" y1="672.5443" x2="192.9859" y2="307.353" gradientTransform="matrix(1 0 0 -1 0 784)">
				<stop  offset="0" style="stop-color:#FB9C0C"/>
				<stop  offset="0.4557" style="stop-color:#C700CD"/>
				<stop  offset="1" style="stop-color:#24D6F0"/>
			</linearGradient>
			<path style="fill:url(#SVGID_00000182520942884975059810000003495235860092714144_);" d="M107.9,403.8v-19.7L88.7,365l30.4-30.4
				l0.1,17.3L106.1,365l9,9.1h22.5v29.8h-29.7C107.9,403.9,107.9,403.8,107.9,403.8z M115.2,382.9v13.6h15v-15h-13.6L115.2,382.9z"
				/>
			
				<linearGradient id="SVGID_00000023277244468511513850000009962041443640847293_" gradientUnits="userSpaceOnUse" x1="21.5321" y1="745.6887" x2="291.8148" y2="380.4975" gradientTransform="matrix(1 0 0 -1 0 784)">
				<stop  offset="0" style="stop-color:#FB9C0C"/>
				<stop  offset="0.4557" style="stop-color:#C700CD"/>
				<stop  offset="1" style="stop-color:#24D6F0"/>
			</linearGradient>
			<polygon style="fill:url(#SVGID_00000023277244468511513850000009962041443640847293_);" points="88.5,155.8 65.4,132.6 
				83.2,133.1 93.6,143.5 125.3,143.5 112.7,155.8 			"/>
			
				<linearGradient id="SVGID_00000042731343559433575680000012616692706147907502_" gradientUnits="userSpaceOnUse" x1="-27.357" y1="709.5053" x2="242.9258" y2="344.3141" gradientTransform="matrix(1 0 0 -1 0 784)">
				<stop  offset="0" style="stop-color:#FB9C0C"/>
				<stop  offset="0.4557" style="stop-color:#C700CD"/>
				<stop  offset="1" style="stop-color:#24D6F0"/>
			</linearGradient>
			<polygon style="fill:url(#SVGID_00000042731343559433575680000012616692706147907502_);" points="31.9,219.3 19.1,207.8 
				46.7,206.9 80.8,172.9 97.9,173.2 51.8,219.3 			"/>
			
				<linearGradient id="SVGID_00000092449230278867685960000002697994424839224203_" gradientUnits="userSpaceOnUse" x1="-76.9125" y1="672.8287" x2="193.3703" y2="307.6375" gradientTransform="matrix(1 0 0 -1 0 784)">
				<stop  offset="0" style="stop-color:#FB9C0C"/>
				<stop  offset="0.4557" style="stop-color:#C700CD"/>
				<stop  offset="1" style="stop-color:#24D6F0"/>
			</linearGradient>
			<polygon style="fill:url(#SVGID_00000092449230278867685960000002697994424839224203_);" points="19,291.8 40.8,270 40.8,246.8 
				53.1,235.8 53.1,275.1 36.4,291.8 			"/>
			
				<linearGradient id="SVGID_00000002385617939605254620000017859608803477480602_" gradientUnits="userSpaceOnUse" x1="89.5445" y1="796.0257" x2="359.8273" y2="430.8345" gradientTransform="matrix(1 0 0 -1 0 784)">
				<stop  offset="0" style="stop-color:#FB9C0C"/>
				<stop  offset="0.4557" style="stop-color:#C700CD"/>
				<stop  offset="1" style="stop-color:#24D6F0"/>
			</linearGradient>
			<polygon style="fill:url(#SVGID_00000002385617939605254620000017859608803477480602_);" points="236.1,182.7 248,214.8 
				264.4,211.5 			"/>
			
				<linearGradient id="SVGID_00000155863973686901658610000003416160183071443630_" gradientUnits="userSpaceOnUse" x1="52.6352" y1="768.7086" x2="322.9179" y2="403.5174" gradientTransform="matrix(1 0 0 -1 0 784)">
				<stop  offset="0" style="stop-color:#FB9C0C"/>
				<stop  offset="0.4557" style="stop-color:#C700CD"/>
				<stop  offset="1" style="stop-color:#24D6F0"/>
			</linearGradient>
			<polygon style="fill:url(#SVGID_00000155863973686901658610000003416160183071443630_);" points="286,271.1 276.1,273.7 
				246.5,262.3 226.7,267.2 227.4,245.6 199.4,238.6 201.7,225.8 179.2,245.8 215.7,255.7 215.8,280.6 244,272.5 275.4,284.1 
				274.3,312.7 284.5,309.3 295.7,292.5 284.9,296.2 			"/>
		</g>
	</g>
</g>
<g id="Layer_2_00000027566529463867688540000004275525337769446310_">
	<g>
		<g>
			<path class="st2" d="M382.9,273.2V152.8c0-6.1,5.2-11,11.6-11h64.1c18.8,0,33.9,14.4,33.9,32.2v78c0,17.6-15.2,32.2-33.9,32.2
				h-64.1C388.1,284.2,382.9,279.3,382.9,273.2z M473.8,253.5v-81c0-8-6.8-14.4-15.2-14.4h-53.1c-2.2,0-3.8,1.5-3.8,3.6v102.6
				c0,1.9,1.6,3.6,3.8,3.6h53.1C467,267.9,473.8,261.5,473.8,253.5z"/>
			<path class="st2" d="M545.1,172.5v36c2-2.3,5.6-3.8,9.8-3.8h65.7v13.8c0,1.3-1.2,2.5-2.6,2.5h-72.9v32.4c0,8,6.8,14.4,15.2,14.4
				H625c1.4,0,2.6,1.1,2.6,2.5v13.8h-67.3c-18.8,0-33.9-14.4-33.9-32.2V174c0-17.8,15.2-32.2,33.9-32.2h67.3v13.8
				c0,1.3-1.2,2.5-2.6,2.5h-64.7C551.9,158.1,545.1,164.5,545.1,172.5z"/>
			<path class="st2" d="M757.4,141.8v13.8c0,1.3-1.2,2.5-2.6,2.5h-64.7c-8.4,0-15.2,6.5-15.2,14.4v36.4c2-2.5,5.8-4.2,10-4.2h67.9
				v13.8c0,1.3-1.2,2.5-2.6,2.5h-75.3v60.7c0,1.3-1.2,2.5-2.6,2.5h-16.2V174c0-17.8,15.2-32.2,33.9-32.2H757.4z"/>
			<path class="st2" d="M788.3,281.7v-140h16.2c1.4,0,2.6,1.1,2.6,2.5v140h-16.2C789.5,284.2,788.3,283.1,788.3,281.7z"/>
			<path class="st2" d="M942.5,218.2v-74c0-1.3,1.2-2.5,2.6-2.5h16.2v142.4h-17.4c-1.4,0-3.2-1.1-3.8-2.3L871.8,161
				c-1-1.7-3.4-3-5.4-3H863v123.7c0,1.3-1.2,2.5-2.6,2.5h-16.2v-140c0-1.3,1.2-2.5,2.6-2.5h22.8c6.4,0,14,4.4,17,9.7l40.7,73
				l18.2,34C943.5,243.6,943.5,231.7,942.5,218.2z"/>
			<path class="st2" d="M999.6,281.7v-140h16.2c1.4,0,2.6,1.1,2.6,2.5v140h-16.2C1000.8,284.2,999.6,283.1,999.6,281.7z"/>
			<path class="st2" d="M1156,141.8v13.8c0,1.3-1.2,2.5-2.6,2.5h-42.7v123.7c0,1.3-1,2.5-2.6,2.5h-16.2V158.1h-44.7v-13.8
				c0-1.3,1.2-2.5,2.6-2.5H1156z"/>
			<path class="st2" d="M1301.2,141.8l-30.6,73.8c-2.2,5.7-7,10.8-14.8,10.8h-9v55.4c0,1.3-1.2,2.5-2.6,2.5h-16.4v-57.8l-8-0.2
				c-8.6,0-13.6-4.9-15.8-10.6l-30.6-73.8h17.6c1.4,0,3,1.1,3.6,2.3l25,62c0.8,1.9,3.2,3.4,5.2,3.4h25c2,0,4.4-1.5,5.2-3.4l25-62
				c0.6-1.1,2.2-2.3,3.6-2.3h17.6L1301.2,141.8L1301.2,141.8z"/>
			<path class="st3" d="M1428.8,141.8v13.8c0,1.3-1.2,2.5-2.6,2.5h-64.7c-8.4,0-15.2,6.5-15.2,14.4v36.4c2-2.5,5.8-4.2,10-4.2h67.9
				v13.8c0,1.3-1.2,2.5-2.6,2.5h-75.3v60.7c0,1.3-1.2,2.5-2.6,2.5h-16.2V174c0-17.8,15.2-32.2,33.9-32.2H1428.8z"/>
			<path class="st3" d="M1459.7,281.7v-140h16.2c1.4,0,2.6,1.1,2.6,2.5v140h-16.2C1460.9,284.2,1459.7,283.1,1459.7,281.7z"/>
		</g>
		<g class="st4">
			<path class="st2" d="M443.9,397.6c-1.7-4-3.3-7.9-4.8-11.6s-2.9-7.4-4.2-10.9h-44.6c-1.5,3.6-3,7.2-4.5,10.9
				c-1.5,3.7-3,7.6-4.6,11.6h-9.3c3.5-8.6,6.7-16.5,9.8-23.9c3.1-7.4,6.1-14.4,9.1-21s5.9-12.9,8.8-19s6-12.2,9.2-18.3h7.9
				c3.2,6.1,6.3,12.2,9.2,18.3c2.9,6.1,5.8,12.4,8.8,19s6,13.6,9,21c3.1,7.4,6.4,15.4,10.1,23.9H443.9z M412.5,324.7
				c-3.3,6.8-6.5,13.7-9.7,20.8c-3.1,7-6.4,14.6-9.7,22.7h39c-3.4-8.1-6.7-15.7-9.8-22.8C419.1,338.4,415.8,331.5,412.5,324.7z"/>
			<path class="st2" d="M494.5,398.9c-5.3,0-9.9-0.8-14-2.2c-4-1.5-7.4-3.7-10.1-6.5s-4.7-6.2-6.1-10.1s-2.1-8.2-2.1-13
				s0.7-9.2,2.2-13.2c1.4-4,3.5-7.4,6.3-10.2c2.7-2.8,6-5,9.9-6.6c3.9-1.5,8.2-2.3,13-2.3c3.7,0,7.1,0.3,10.3,0.8
				c3.2,0.6,5.7,1.3,7.4,2.1l-2.2,6.6c-1.8-0.8-3.7-1.4-5.9-1.9c-2.2-0.5-5.1-0.7-8.8-0.7c-7.6,0-13.3,2.2-17.2,6.6
				c-3.9,4.4-5.9,10.6-5.9,18.7c0,3.6,0.4,7,1.3,10s2.3,5.6,4.3,7.8c2,2.2,4.5,3.9,7.6,5.1s6.9,1.8,11.4,1.8c3.7,0,6.8-0.4,9.3-1.1
				c2.5-0.8,4.3-1.4,5.5-2l1.8,6.6c-1.6,0.8-4.1,1.6-7.4,2.3C501.7,398.5,498.2,398.9,494.5,398.9z"/>
			<path class="st2" d="M547.6,334.9c4.5,0,8.3,0.6,11.4,1.7c3.1,1.1,5.6,2.7,7.6,4.7c1.9,2,3.3,4.4,4.2,7.2c0.9,2.8,1.3,5.8,1.3,9
				v38.6c-0.9,0.2-2.2,0.5-3.8,0.8c-1.7,0.3-3.6,0.6-5.8,0.9s-4.6,0.6-7.3,0.8c-2.7,0.2-5.4,0.3-8.2,0.3c-3.6,0-6.9-0.4-9.9-1.1
				s-5.7-1.8-7.9-3.4c-2.2-1.5-4-3.5-5.3-5.9s-1.9-5.4-1.9-8.8c0-3.3,0.7-6.2,2.1-8.5c1.4-2.4,3.4-4.3,5.9-5.9
				c2.5-1.5,5.6-2.7,9.1-3.4c3.5-0.7,7.3-1.1,11.5-1.1c1.2,0,2.5,0.1,3.9,0.2s2.7,0.3,3.9,0.5c1.3,0.2,2.4,0.4,3.3,0.6
				c0.9,0.2,1.6,0.4,1.9,0.5v-3.8c0-2.1-0.2-4.2-0.5-6.2c-0.4-2-1.1-3.8-2.3-5.5c-1.2-1.6-2.9-2.9-5-3.9c-2.2-1-5-1.5-8.5-1.5
				c-5,0-8.7,0.3-11.2,0.9s-4.3,1.1-5.4,1.5l-1.2-6.8c1.5-0.6,3.8-1.2,6.9-1.8C539.4,335.1,543.2,334.9,547.6,334.9z M548.4,392
				c3.3,0,6.3-0.1,8.8-0.3c2.5-0.2,4.6-0.5,6.4-0.8v-21.6c-1-0.4-2.5-0.8-4.6-1.2c-2.1-0.4-5-0.6-8.7-0.6c-2.1,0-4.3,0.1-6.6,0.4
				s-4.4,0.9-6.3,1.8c-1.9,0.9-3.5,2.2-4.7,3.7c-1.2,1.6-1.8,3.7-1.8,6.3c0,2.3,0.4,4.2,1.3,5.8c0.8,1.6,2,2.8,3.6,3.8
				c1.5,1,3.4,1.6,5.5,2.1S545.7,392,548.4,392z"/>
			<path class="st2" d="M648.1,395.7c-2.5,0.8-5.8,1.5-9.7,2.3c-4,0.7-9,1.1-15,1.1c-5,0-9.5-0.7-13.6-2.2s-7.6-3.6-10.5-6.3
				c-2.9-2.8-5.2-6.1-6.8-10.1c-1.6-3.9-2.4-8.4-2.4-13.4c0-4.7,0.7-8.9,2-12.9c1.4-3.9,3.4-7.3,6-10.1c2.6-2.8,5.9-5.1,9.7-6.6
				c3.8-1.6,8.2-2.4,13.1-2.4c4.5,0,8.4,0.6,11.7,1.7s5.7,2.2,7.2,3.3v-33l8.6-1.4v90H648.1z M639.5,347.4c-0.8-0.6-1.8-1.1-3-1.8
				c-1.2-0.6-2.6-1.2-4.1-1.8c-1.6-0.6-3.3-1-5.1-1.4s-3.8-0.5-5.8-0.5c-4.2,0-7.7,0.7-10.6,2c-2.9,1.3-5.2,3.1-6.9,5.4
				c-1.8,2.3-3,4.9-3.8,7.9s-1.2,6.3-1.2,9.7c0,8.1,2.2,14.2,6.7,18.6c4.5,4.3,10.4,6.5,17.8,6.5c4.2,0,7.6-0.2,10.2-0.5
				c2.6-0.4,4.5-0.7,5.9-1.1v-43L639.5,347.4L639.5,347.4z"/>
			<path class="st2" d="M666.7,366.9c0-5.4,0.9-10.1,2.6-14c1.7-4,4-7.3,6.7-10c2.8-2.7,5.9-4.7,9.5-6s7.2-2,11-2
				c8.3,0,15,2.5,19.9,7.4s7.4,12.4,7.4,22.6c0,0.6,0,1.3-0.1,1.9c0,0.6-0.1,1.2-0.2,1.8h-47.8c0.3,7.5,2.3,13.3,6.2,17.3
				s10,6,18.4,6c4.7,0,8.3-0.4,11.1-1.2c2.7-0.8,4.7-1.5,5.9-2l1.6,6.6c-1.2,0.6-3.5,1.4-6.9,2.3s-7.4,1.3-11.9,1.3
				c-6,0-11.1-0.8-15.3-2.4s-7.7-3.8-10.4-6.6c-2.7-2.8-4.7-6.2-5.9-10.1C667.3,375.8,666.7,371.5,666.7,366.9z M715,362
				c-0.2-6.4-1.8-11.4-5-14.9c-3.2-3.6-7.6-5.3-13.4-5.3c-3.1,0-5.8,0.6-8.2,1.7s-4.5,2.6-6.3,4.4c-1.8,1.9-3.2,4-4.2,6.5
				c-1,2.4-1.6,5-1.8,7.7H715V362z"/>
			<path class="st2" d="M742.9,338.4c2.5-0.6,5.9-1.3,9.9-2.1c4.1-0.8,9.4-1.2,15.9-1.2c8.6,0,14.8,2.2,18.7,6.8
				c0.4-0.3,1.3-0.8,2.6-1.6c1.3-0.8,2.9-1.5,4.8-2.3c1.9-0.8,4.2-1.5,6.8-2c2.6-0.6,5.5-0.8,8.6-0.8c5.2,0,9.4,0.7,12.6,2.1
				c3.2,1.4,5.7,3.3,7.4,5.8c1.8,2.5,2.9,5.5,3.6,8.9c0.6,3.5,0.9,7.3,0.9,11.4v34.3h-8.6v-31.8c0-4-0.2-7.5-0.6-10.5
				c-0.4-3-1.2-5.4-2.4-7.3s-2.9-3.4-5.1-4.4c-2.2-1-5.1-1.5-8.6-1.5c-2.6,0-5,0.2-7.2,0.7c-2.2,0.4-4,1-5.6,1.6s-2.9,1.3-3.9,1.9
				s-1.7,1.1-2.2,1.4c0.8,2.1,1.4,4.4,1.8,6.9c0.4,2.6,0.6,5.3,0.6,8.1v34.9h-8.6v-31.8c0-4-0.2-7.5-0.6-10.5
				c-0.4-3-1.2-5.4-2.4-7.3s-3-3.4-5.2-4.4s-5.2-1.5-8.9-1.5c-4.1,0-7.6,0.2-10.5,0.6s-4.7,0.8-5.5,1.1v53.8h-8.6v-59.3L742.9,338.4
				L742.9,338.4z"/>
			<path class="st2" d="M875.2,398.9c-2.9-4.8-5.6-9.9-8.3-15.1s-5.2-10.5-7.5-15.8s-4.5-10.7-6.4-16s-3.6-10.6-5-15.7h9.1
				c1,3.8,2.2,7.9,3.7,12.3s3.2,8.9,5.1,13.6c1.9,4.7,4,9.4,6.2,14.4c2.3,4.9,4.8,9.7,7.5,14.5c2-4.9,3.7-9.5,5.2-13.8
				s2.9-8.7,4.2-13s2.5-8.7,3.7-13.2s2.4-9.4,3.7-14.6h8.6c-2.9,11.5-6.1,22.6-9.6,33.5c-3.6,10.8-7.5,20.7-11.7,29.7
				c-1.7,3.6-3.4,6.6-5.2,9.2s-3.7,4.7-5.9,6.3s-4.7,2.9-7.5,3.7c-2.9,0.8-6.2,1.2-10.1,1.2c-2.2,0-4.2-0.2-6-0.7s-2.9-0.8-3.4-1.1
				l1.7-6.4c0.4,0.2,1.3,0.6,3,1c1.6,0.4,3.3,0.7,5.1,0.7c2.5,0,4.7-0.2,6.7-0.7s3.8-1.3,5.3-2.4c1.6-1.1,3-2.6,4.3-4.4
				C872.7,403.9,874,401.6,875.2,398.9z"/>
		</g>
	</g>
	<g>
		<g>
			
				<linearGradient id="SVGID_00000111149266863265740160000004723928754377923240_" gradientUnits="userSpaceOnUse" x1="-69.2728" y1="-243.0893" x2="286.9707" y2="137.6007" gradientTransform="matrix(1 0 0 1 0 342)">
				<stop  offset="0" style="stop-color:#FB9C0C"/>
				<stop  offset="0.4557" style="stop-color:#E500CD"/>
				<stop  offset="1" style="stop-color:#24D6F0"/>
			</linearGradient>
			<path style="fill:url(#SVGID_00000111149266863265740160000004723928754377923240_);" d="M42.2,389.4v-31.3h18.2l1.3-1.3
				l42.6-42.6v-72.6l52.5-52.5l18.5-0.2L117.1,247v72.6l-41.3,41.3l-2.3,2.6v25.9H42.2z M50,381.6h15.8v-15.8H50V381.6z"/>
			
				<linearGradient id="SVGID_00000097493914538502312520000014126403280960283549_" gradientUnits="userSpaceOnUse" x1="57.215" y1="-343.3673" x2="388.2531" y2="10.3878" gradientTransform="matrix(1 0 0 1 0 342)">
				<stop  offset="0" style="stop-color:#FB9C0C"/>
				<stop  offset="0.4557" style="stop-color:#E500CD"/>
				<stop  offset="1" style="stop-color:#24D6F0"/>
			</linearGradient>
			<polygon style="fill:url(#SVGID_00000097493914538502312520000014126403280960283549_);" points="329.2,268.7 291.8,227.9 
				293.5,192.8 272.5,184 239.6,149.1 216.9,144.3 172.7,100 168.5,81.4 150.6,66.3 160.4,107.7 208.2,155.5 233.5,161.4 
				267.2,197.5 281.5,203.7 279.3,235 326.4,284.1 325.6,294.9 312.2,300.1 301.3,317.8 337.7,303.4 342.1,264.8 			"/>
			
				<linearGradient id="SVGID_00000171684016618890504920000014760383990595657354_" gradientUnits="userSpaceOnUse" x1="-40.2979" y1="-254.7764" x2="297.2928" y2="105.9811" gradientTransform="matrix(1 0 0 1 0 342)">
				<stop  offset="0" style="stop-color:#FB9C0C"/>
				<stop  offset="0.4557" style="stop-color:#E500CD"/>
				<stop  offset="1" style="stop-color:#24D6F0"/>
			</linearGradient>
			<path style="fill:url(#SVGID_00000171684016618890504920000014760383990595657354_);" d="M170.2,419.9v-27.7l-0.1-4.3L138,355.7
				V255.1l31-32.5h18.2L151,260.7v89.6l38.3,38.3h12.3v31.3H170.2z M178,412.1h15.8v-15.8H178V412.1z"/>
			
				<linearGradient id="SVGID_00000077290890089093752180000005838591342855960973_" gradientUnits="userSpaceOnUse" x1="-37.3527" y1="-251.8461" x2="295.4811" y2="103.828" gradientTransform="matrix(1 0 0 1 0 342)">
				<stop  offset="0" style="stop-color:#FB9C0C"/>
				<stop  offset="0.4557" style="stop-color:#E500CD"/>
				<stop  offset="1" style="stop-color:#24D6F0"/>
			</linearGradient>
			<path style="fill:url(#SVGID_00000077290890089093752180000005838591342855960973_);" d="M223.4,419.9v-28.2L172.6,341v-67.5
				l12.9,3.6v58.6l53,53h16.1V420h-31.2L223.4,419.9L223.4,419.9z M231.2,396.3v15.8H247v-15.8H231.2z"/>
			
				<linearGradient id="SVGID_00000123427257658461139010000008294120652165231293_" gradientUnits="userSpaceOnUse" x1="-23.526" y1="-270.297" x2="322.3243" y2="99.2867" gradientTransform="matrix(1 0 0 1 0 342)">
				<stop  offset="0" style="stop-color:#FB9C0C"/>
				<stop  offset="0.4557" style="stop-color:#E500CD"/>
				<stop  offset="1" style="stop-color:#24D6F0"/>
			</linearGradient>
			<path style="fill:url(#SVGID_00000123427257658461139010000008294120652165231293_);" d="M41.7,324.2l28.8-28.8v-67.6l71.3-71.3
				h23.8l-33.2-33.2L104.9,11.7l16.8,14.1l22.4,91l52.7,52.7h-49.7l-63.7,63.7v67.6l-41.7,41.7C41.7,342.5,41.7,324.2,41.7,324.2z"
				/>
			
				<linearGradient id="SVGID_00000016042323429858592920000014219689648320182938_" gradientUnits="userSpaceOnUse" x1="-100.8969" y1="-190.2928" x2="233.5102" y2="167.0623" gradientTransform="matrix(1 0 0 1 0 342)">
				<stop  offset="0" style="stop-color:#FB9C0C"/>
				<stop  offset="0.4557" style="stop-color:#E500CD"/>
				<stop  offset="1" style="stop-color:#24D6F0"/>
			</linearGradient>
			<path style="fill:url(#SVGID_00000016042323429858592920000014219689648320182938_);" d="M115.5,419.9v-20.7l-23.7-23.7
				l26.5-26.5v18.3l-8.1,8.1l13.1,13.1h23.6v31.3h-31.4C115.5,419.8,115.5,419.9,115.5,419.9z M123.2,397.9v14.3H139v-15.8h-15.8
				V397.9z"/>
			
				<linearGradient id="SVGID_00000081615576443942518820000017618983733639451524_" gradientUnits="userSpaceOnUse" x1="10.5965" y1="-292.0005" x2="335.1958" y2="54.8739" gradientTransform="matrix(1 0 0 1 0 342)">
				<stop  offset="0" style="stop-color:#FB9C0C"/>
				<stop  offset="0.4557" style="stop-color:#E500CD"/>
				<stop  offset="1" style="stop-color:#24D6F0"/>
			</linearGradient>
			<polygon style="fill:url(#SVGID_00000081615576443942518820000017618983733639451524_);" points="88.6,159.7 64.3,135.4 
				83.1,135.8 94,146.7 127.3,146.7 114.1,159.7 			"/>
			
				<linearGradient id="SVGID_00000094612068608924153080000004845362659443503747_" gradientUnits="userSpaceOnUse" x1="-36.2004" y1="-243.5519" x2="288.2431" y2="103.1559" gradientTransform="matrix(1 0 0 1 0 342)">
				<stop  offset="0" style="stop-color:#FB9C0C"/>
				<stop  offset="0.4557" style="stop-color:#E500CD"/>
				<stop  offset="1" style="stop-color:#24D6F0"/>
			</linearGradient>
			<polygon style="fill:url(#SVGID_00000094612068608924153080000004845362659443503747_);" points="26.9,226 13.5,214 42.5,213.1 
				78.2,177.3 96.3,177.6 47.8,226 			"/>
			
				<linearGradient id="SVGID_00000039129402250070523840000003614310832729625266_" gradientUnits="userSpaceOnUse" x1="-95.9473" y1="-204.8926" x2="254.3574" y2="169.4511" gradientTransform="matrix(1 0 0 1 0 342)">
				<stop  offset="0" style="stop-color:#FB9C0C"/>
				<stop  offset="0.4557" style="stop-color:#E500CD"/>
				<stop  offset="1" style="stop-color:#24D6F0"/>
			</linearGradient>
			<polygon style="fill:url(#SVGID_00000039129402250070523840000003614310832729625266_);" points="15,302.4 37.9,279.5 
				37.9,260.2 50.9,247.3 50.9,284.9 33.3,302.4 			"/>
			
				<linearGradient id="SVGID_00000165949878837497032660000005601656762028460219_" gradientUnits="userSpaceOnUse" x1="62.8889" y1="-345.1091" x2="390.8231" y2="5.3291" gradientTransform="matrix(1 0 0 1 0 342)">
				<stop  offset="0" style="stop-color:#FB9C0C"/>
				<stop  offset="0.4557" style="stop-color:#E500CD"/>
				<stop  offset="1" style="stop-color:#24D6F0"/>
			</linearGradient>
			<polygon style="fill:url(#SVGID_00000165949878837497032660000005601656762028460219_);" points="241.3,187.7 253.9,211.4 
				271.1,209 			"/>
			
				<linearGradient id="SVGID_00000039093579609040492970000001666110601424292480_" gradientUnits="userSpaceOnUse" x1="23.7563" y1="-303.4252" x2="350.8011" y2="46.0624" gradientTransform="matrix(1 0 0 1 0 342)">
				<stop  offset="0" style="stop-color:#FB9C0C"/>
				<stop  offset="0.4557" style="stop-color:#E500CD"/>
				<stop  offset="1" style="stop-color:#24D6F0"/>
			</linearGradient>
			<polygon style="fill:url(#SVGID_00000039093579609040492970000001666110601424292480_);" points="293.8,280.5 283.4,283.2 
				252.2,271.3 231.5,276.4 232.2,253.7 202.9,246.4 205.2,232.9 181.6,253.9 219.9,264.4 220,290.5 249.7,282 282.6,294.2 
				281.5,324.2 292.1,320.6 303.9,302.9 292.6,306.8 			"/>
			
				<linearGradient id="SVGID_00000052078392356973037630000000878530548813171638_" gradientUnits="userSpaceOnUse" x1="35.3" y1="-2.6" x2="35.3" y2="-2.6" gradientTransform="matrix(1 0 0 1 0 342)">
				<stop  offset="0" style="stop-color:#FB9C0C"/>
				<stop  offset="0.4557" style="stop-color:#E500CD"/>
				<stop  offset="1" style="stop-color:#24D6F0"/>
			</linearGradient>
			<path style="fill:url(#SVGID_00000052078392356973037630000000878530548813171638_);" d="M35.3,339.4"/>
		</g>
	</g>
</g>
<rect x="944" y="324.7" class="st28" width="239" height="86.5"/>
<text transform="matrix(1 0 0 1 978.8898 393.8535)" class="st29 st30 st31 st32">BETA</text>
<g>
	<text transform="matrix(1 0 0 1 1238.6543 401.2285)" class="st33 st30 st34 st35">BETA</text>
</g>
</svg>
